<?xml version="1.0" standalone="no"?>
<!DOCTYPE svg PUBLIC "-//W3C//DTD SVG 20010904//EN"
 "http://www.w3.org/TR/2001/REC-SVG-20010904/DTD/svg10.dtd">
<svg version="1.0" xmlns="http://www.w3.org/2000/svg"
 width="261.000000pt" height="261.000000pt" viewBox="0 0 261.000000 261.000000"
 preserveAspectRatio="xMidYMid meet">
<metadata>
Created by potrace 1.11, written by Peter Selinger 2001-2013
</metadata>
<g transform="translate(0.000000,261.000000) scale(0.100000,-0.100000)"
fill="#000000" stroke="none">
<path d="M1199 2596 c-2 -2 -32 -6 -66 -10 -34 -4 -97 -16 -140 -27 -43 -11
-85 -22 -93 -24 -29 -6 -186 -77 -240 -107 -121 -69 -294 -217 -368 -317 -15
-20 -33 -42 -40 -49 -25 -27 -109 -180 -145 -262 -36 -85 -71 -210 -81 -285
-3 -22 -8 -51 -11 -65 -7 -34 -7 -223 0 -290 47 -433 320 -823 710 -1015 113
-55 243 -99 365 -122 105 -20 517 -19 616 2 248 50 433 151 596 324 151 160
244 346 282 563 13 78 15 499 3 573 -12 69 -17 93 -32 150 -113 431 -460 786
-890 910 -49 14 -106 28 -125 31 -19 3 -43 8 -53 10 -20 6 -283 15 -288 10z"/>
</g>
</svg>
